# xmcd
#
# Track frame offsets:
#	150
#	19862
#	32356
#	43551
#	57144
#	73696
#	87411
#	114962
#	128220
#	141941
#	160556
#	174931
#	191833
#	208144
#	223534
#	240689
#	255568
#	275155
#	294998
#	310353
#	326470
#	343494
#
# Disc length: 4774 seconds
#
# Revision: 2
# Processed by: cddbd v1.5.2PL0 Copyright (c) Steve Scherf et al.
# Submitted via: audiograbber 1.83.01
#
DISCID=4a12a416
DTITLE=Confederate Railroad - Rockin' Country Party Mix
DYEAR=1900
DGENRE=Country
TTITLE0=Trashy women (club mix)
TTITLE1=She took it like a man
TTITLE2=When and where
TTITLE3=White Trash With Money
TTITLE4=Bill's laudromat, bar and grill
TTITLE5=The one you love the most
TTITLE6=Queen of Memphis (club mix)
TTITLE7=Toss a little bone
TTITLE8=I hate rap
TTITLE9=Jesus and Mama
TTITLE10=Daddy never was the Cadillac kind
TTITLE11=Tonight is mine
TTITLE12=She never cried
TTITLE13=I'm just a rebel
TTITLE14=Keep on rockin'
TTITLE15=Cowboy Cadillac (dance mix)
TTITLE16=Roll the dice
TTITLE17=Finish what we started
TTITLE18=I don't want to hang out with me
TTITLE19=Long Gone
TTITLE20=Momma ain't home tonight
TTITLE21=Notorious
EXTD=
EXTT0=
EXTT1=
EXTT2=
EXTT3=
EXTT4=
EXTT5=
EXTT6=
EXTT7=
EXTT8=
EXTT9=
EXTT10=
EXTT11=
EXTT12=
EXTT13=
EXTT14=
EXTT15=
EXTT16=
EXTT17=
EXTT18=
EXTT19=
EXTT20=
EXTT21=
PLAYORDER=
